<?xml version="1.0" encoding="UTF-8" standalone="no"?>
<svg
   fill="none"
   height="58"
   viewBox="0 0 250 250"
   width="58"
   version="1.1"
   id="svg9"
   sodipodi:docname="duolingo.svg"
   inkscape:version="1.3.2 (1:1.3.2+202311252150+091e20ef0f)"
   xmlns:inkscape="http://www.inkscape.org/namespaces/inkscape"
   xmlns:sodipodi="http://sodipodi.sourceforge.net/DTD/sodipodi-0.dtd"
   xmlns="http://www.w3.org/2000/svg"
   xmlns:svg="http://www.w3.org/2000/svg">
  <defs
     id="defs9" />
  <sodipodi:namedview
     id="namedview9"
     pagecolor="#ffffff"
     bordercolor="#666666"
     borderopacity="1.0"
     inkscape:showpageshadow="2"
     inkscape:pageopacity="0.0"
     inkscape:pagecheckerboard="0"
     inkscape:deskcolor="#d1d1d1"
     inkscape:zoom="12.862069"
     inkscape:cx="28.961126"
     inkscape:cy="29"
     inkscape:window-width="1920"
     inkscape:window-height="946"
     inkscape:window-x="0"
     inkscape:window-y="27"
     inkscape:window-maximized="1"
     inkscape:current-layer="g5" />
  <g
     clip-rule="evenodd"
     fill-rule="evenodd"
     id="g5">
    <path
       d="m47.583 0h154.858c26.27 0 47.559 21.29 47.559 47.583v154.858c0 26.27-21.289 47.583-47.583 47.583h-154.834c-26.294-.024-47.583-21.313-47.583-47.607v-154.834c0-26.294 21.29-47.583 47.583-47.583z"
       fill="#50c800"
       id="path1"
       style="fill:#ebebeb;fill-opacity:1" />
    <path
       d="m250.008 161.499v-72.314a56.656 56.656 0 0 0 -12.182-18.36c.464-7.764-1.27-15.625-5.298-22.632-2.637-4.59-9.009-5.249-12.573-1.294l-8.081 8.96c-.049-.024-.098-.024-.147-.048 1.05-8.18-.342-16.626-4.346-24.17-2.49-4.688-7.885-5.518-11.596-1.71l-38.819 39.332c-.439.415-.903.854-1.342 1.294-.025.024-.074.048-.098.073-16.87 15.283-43.164 15.918-59.229 1.88a55.108 55.108 0 0 0 -3.15-3.174l-38.89-39.38c-3.712-3.809-9.107-2.978-11.597 1.71-3.98 7.519-5.396 15.917-4.37 24.047-.074.024-.147.024-.22.049l-7.984-8.863c-3.564-3.955-9.936-3.296-12.597 1.294-3.955 6.86-5.689 14.551-5.323 22.168a57.148 57.148 0 0 0 -12.182 17.7v74.585c8.765 19.996 28.735 33.985 51.953 33.985h2.49c23.023 0 42.847-13.745 51.709-33.472 8.521-.049 14.697-.073 18.531-.073 8.3-.024 14.77-.024 19.409-.024 8.838 19.775 28.711 33.569 51.757 33.569h1.758c23.658 0 43.921-14.527 52.417-35.132z"
       fill="#8ee000"
       id="path2"
       style="fill:#ffffff;fill-opacity:1" />
    <path
       d="m55.453 74.219c21.777 0 39.453 17.65 39.453 39.453v23.364c0 21.777-17.652 39.453-39.453 39.453-21.778 0-39.454-17.651-39.454-39.453v-23.364c0-21.802 17.676-39.453 39.454-39.453zm138.599 0c21.777 0 39.453 17.65 39.453 39.453v23.364c0 21.777-17.652 39.453-39.453 39.453-21.778 0-39.454-17.651-39.454-39.453v-23.364c0-21.802 17.652-39.453 39.454-39.453z"
       fill="#fff"
       id="path3" />
    <path
       d="m61.532 96.875c10.327 0 18.725 8.374 18.725 18.726v19.995c0 10.327-8.374 18.725-18.725 18.725-10.327 0-18.726-8.374-18.726-18.725v-19.995c0-10.352 8.399-18.726 18.726-18.726z"
       fill="#4b4b4b"
       id="path4" />
    <path
       d="m125.01 142.266c11.84 0 21.435 9.595 21.435 21.435v7.447c0 11.841-9.595 21.435-21.435 21.435-11.841 0-21.436-9.594-21.436-21.435v-7.447c0-11.84 9.595-21.435 21.436-21.435z"
       fill="#f48000"
       id="path5"
       style="fill:#808080;fill-opacity:1" />
  </g>
  <path
     d="m95.42 165.752c2.563-13.671 15.234-23.535 30.395-23.535 13.794 0 26.27 10.108 28.784 23.535v1.099c0 .855-.293 1.196-1.074 1.099l-27.685 4.931h-1.636l-27.71-4.956c-.781.098-1.074-.244-1.074-1.098z"
     fill="#ffc200"
     id="path6"
     style="fill:#b2b2b2;fill-opacity:1" />
  <path
     clip-rule="evenodd"
     d="m120.468 146.953a19.25 19.25 0 0 1 4.419-.537c1.587 0 3.199.196 4.786.611a7.285 7.285 0 0 1 5.468 7.055 4.83 4.83 0 0 1 -4.834 4.834h-10.595a4.83 4.83 0 0 1 -4.834-4.834c-.025-3.369 2.295-6.323 5.59-7.129z"
     fill="#ffe747"
     fill-rule="evenodd"
     id="path7"
     style="fill:#ebebeb;fill-opacity:1" />
  <path
     clip-rule="evenodd"
     d="m187.972 96.875c10.328 0 18.726 8.374 18.726 18.726v19.995c0 10.327-8.374 18.725-18.726 18.725-10.327 0-18.725-8.374-18.725-18.725v-19.995c.024-10.352 8.398-18.726 18.725-18.726z"
     fill="#4b4b4b"
     fill-rule="evenodd"
     id="path8" />
  <path
     d="m45.711 119.58c6.675 0 12.085-5.389 12.085-12.036s-5.41-12.036-12.085-12.036c-6.674 0-12.085 5.389-12.085 12.036s5.411 12.036 12.085 12.036zm124.61 0c6.674 0 12.085-5.389 12.085-12.036s-5.411-12.036-12.085-12.036c-6.675 0-12.085 5.389-12.085 12.036s5.41 12.036 12.085 12.036z"
     fill="#fff"
     id="path9" />
</svg>
